<svg width="358" height="53" viewBox="0 0 358 53" fill="none" xmlns="http://www.w3.org/2000/svg">
<g clip-path="url(#clip0_5_34)">
<path d="M67.3314 16.1386C71.2754 16.5722 75.6163 15.3347 79.3462 17.2727C80.8261 18.0415 82.6515 20.7379 81.6472 22.4794C80.4419 24.5694 79.6875 24.8873 77.4382 25.4482C81.5743 27.6772 83.6843 29.4477 81.703 34.2681C80.2545 35.6088 79.7648 36.1206 77.7827 36.5716C76.259 36.9183 67.1853 37.1096 66.3998 36.5508C66.7299 35.7015 67.3728 35.7886 67.9555 34.8299C68.3219 32.4332 67.9173 21.2119 67.93 18.0851C67.9314 17.6997 66.7214 17.3685 66.4795 16.7789C66.7752 16.2793 66.6994 16.4233 67.3314 16.1386ZM71.3659 26.1302C71.1913 26.2696 71.0786 26.298 71.0716 26.4736C70.9882 28.5388 70.7606 33.5494 71.2345 35.3694C72.2113 36.4929 76.3076 35.3083 77.5608 34.8318C78.654 33.746 79.3972 32.6172 79.4018 30.9914C79.4051 29.8647 78.9554 28.7841 78.1538 27.9929C76.6082 26.4503 74.2285 26.0989 72.1446 26.1101C71.8848 26.1092 71.6253 26.1161 71.3659 26.1302ZM70.999 24.9404C73.1127 25.0349 75.5639 25.3191 77.3482 24.123C78.9232 23.0132 79.2756 20.741 78.2143 19.1864C76.9719 17.3666 73.543 17.3108 71.5699 17.3969C70.629 18.3667 70.951 21.808 70.9733 23.3371L70.999 24.9404Z" fill="white"/>
<path d="M127.477 16.145C129.55 16.2845 130.576 15.6358 131.741 17.62C132.731 19.3062 134.572 27.5687 136.144 27.6181C137.666 26.5423 139.262 17.2096 141.58 16.2766C141.977 16.117 145.011 16.2033 145.384 16.439L145.442 16.8085C145.19 17.4128 144.572 17.6586 143.994 17.9726C143.776 22.9058 144.082 29.9481 144.197 34.973C144.859 35.3136 145.57 35.5789 145.811 36.2768C145.321 37.178 140.319 36.9923 139.768 36.6186C139.823 35.7089 141.201 35.6347 141.258 33.7153C141.311 31.916 141.213 30.2084 141.149 28.4132C141.079 26.1187 141.05 23.8229 141.061 21.5273C141.025 21.2033 140.919 20.9374 140.813 20.6308L140.561 20.5262C140.401 20.6529 140.287 20.7881 140.21 20.9787L136.43 30.5672C136.112 31.3839 136.116 31.863 135.71 32.7538C135.596 32.8042 135.436 32.9132 135.316 32.8771C133.682 32.3861 131.393 23.5771 130.321 21.6191C130.105 21.2247 129.928 20.8642 129.487 20.7356C129.473 20.7498 129.459 20.7638 129.446 20.7788C128.847 21.4729 129.092 32.85 129.207 34.4288C129.907 34.8889 131.135 35.5644 131.439 36.3286L131.242 36.6204C130.558 36.8464 125.956 37.0391 125.468 36.5455C125.49 35.4664 126.471 35.496 126.943 34.895C128.133 33.3825 127.831 29.7293 127.86 27.9401C127.891 24.6371 127.972 21.3347 128.104 18.0343C127.635 17.6985 126.809 17.1999 126.619 16.7021C126.851 16.2681 126.917 16.3572 127.477 16.145Z" fill="white"/>
<path d="M303.168 16.1843L303.603 16.1447L303.825 16.42C303.802 18.2862 302.879 17.4605 302.503 17.9855C301.911 18.8176 302.157 23.9215 302.163 24.9481C304.859 25.1241 308.135 25.0433 310.884 25.0323L310.891 17.8645C310.136 17.6934 309.594 17.6747 309.357 16.8692C310.145 16.0333 314.941 15.6783 315.177 16.9723C314.967 17.5271 314.366 17.7732 313.842 18.0664C313.885 23.3959 313.628 30.0221 313.92 35.1696C314.516 35.5555 315.163 35.813 315.226 36.5476L314.859 36.8357C313.777 37.1231 310.897 36.9034 309.657 36.8479C309.21 36.8278 309.224 36.7138 308.977 36.3778C309.383 35.7794 309.865 35.7271 310.564 35.2501C311.143 34.3202 310.877 28.2268 310.851 26.7379C300.957 26.7199 301.953 24.8864 302.236 35.0977C302.953 35.4176 303.542 35.5775 303.863 36.2851L303.737 36.5903C302.916 37.0274 298.253 37.1509 297.732 36.5198C298.06 35.4619 299.275 35.8018 299.361 33.58C299.425 31.8894 299.41 30.1647 299.404 28.4669C299.366 25.0657 299.377 21.6641 299.432 18.263C298.784 17.8099 297.975 17.4446 298.115 16.5944C298.725 16.0864 301.925 16.2847 303.168 16.1843Z" fill="white"/>
<path d="M326.064 16.181L326.571 16.136C327.02 16.6446 327.02 16.4832 327.013 17.0257C326.718 17.5089 325.926 17.7615 325.381 17.9983C324.918 18.9397 325.112 26.0394 325.12 27.6002C327.104 25.2738 330.797 20.8993 332.346 18.3359C331.626 17.9037 330.539 17.5259 330.799 16.5983C331.764 15.9271 335.443 16.2789 336.745 16.3809L336.92 16.7126C336.819 18.369 335.649 17.5759 334.8 18.2561C333.292 19.4645 331.505 21.5834 330.455 23.1988C331.622 25.9602 335.517 32.5217 336.244 34.8018C337.277 35.5186 337.892 35.587 337.946 36.9002C336.782 36.8698 332.098 37.0867 331.463 36.5933C331.72 35.3442 333.818 35.9807 332.419 33.3872C331.067 30.8761 329.972 28.1799 328.551 25.6642C327.553 26.5268 326.005 28.6359 325.197 29.7283C325.131 31.2345 324.925 33.3038 325.208 34.7706C325.248 34.9797 327.151 36.0066 326.935 36.7587C326.388 37.0468 322.371 36.7986 321.523 36.8642C321.153 36.8927 320.978 36.6989 320.836 36.3827C321.011 35.7789 321.8 35.2286 322.308 34.806L322.306 18.2617C321.66 17.7777 321.022 17.4726 321.013 16.6272C321.597 16.0523 324.755 16.2954 326.064 16.181Z" fill="white"/>
<path d="M244.311 16.1478C246.901 15.9522 247.441 15.5242 248.205 17.9994C249.829 23.2761 251.641 28.4993 253.223 33.7897C253.328 34.1406 254.854 36.1101 255.172 36.6011C254.702 37.05 249.778 37.1465 249.137 36.481L249.144 36.1168C249.485 35.5438 250.124 35.348 250.739 35.0816C249.934 33.3403 249.878 31.8939 248.836 30.3135C248.249 30.2717 247.202 30.301 246.576 30.2973C241.824 30.2686 242.526 30.2175 241.13 34.535C241.904 35.1003 242.743 35.6826 243.441 36.3342V36.5899C243.101 36.8637 238.125 37.5513 237.94 36.2182C238.181 35.5775 239.001 35.0655 239.571 34.6379C241.63 29.4293 243.009 23.514 244.865 18.1988C245.019 17.7583 244.245 16.9859 244.311 16.1478ZM247.013 29.0039C247.525 28.9887 248.217 29.0293 248.633 28.7634C248.385 27.6015 246.2 20.4734 245.293 20.183C245.146 21.6819 242.969 28.4358 243.177 28.8329C243.977 29.0863 246.076 28.9985 247.013 29.0039Z" fill="white"/>
<path d="M151.411 16.1358C153.956 16.447 158.089 15.9937 160.798 16.1566C161.758 16.2143 163.08 16.0161 164.013 16.2761C164.832 17.137 165.982 20.9049 165.042 21.8806L164.593 21.8818C164.062 21.0688 163.496 20.2798 162.896 19.5168C161.753 18.0831 161.163 17.8395 159.323 17.6277C158.513 17.5346 155.836 17.5063 155.266 17.9644C154.92 19.1974 154.976 23.5803 155.207 24.8346C155.936 25.3233 157.634 25.0139 158.57 24.9215C159.006 24.0302 159.461 22.6927 160.442 22.4026L160.744 22.6868C161.073 23.6037 161.039 28.7068 160.795 29.6172L160.547 29.7531C159.71 29.4825 159.135 27.5714 158.513 26.9985C158.016 26.5411 155.66 26.2187 155.278 26.7244L155.262 26.7465C155.06 27.0129 155.069 27.7561 155.053 28.118C155.078 29.1138 155.053 30.0405 155.02 31.0386C154.961 32.831 154.401 35.6267 157.05 35.7182C159.461 35.8014 161.861 35.143 163.471 33.2438C164.171 32.4185 164.862 31.2927 165.662 30.5948L165.853 30.7318C165.996 32.7956 165.17 34.8967 164.856 37.1094C161.654 36.6428 157.565 36.9985 154.263 36.832C153.148 36.7759 151.627 36.8938 150.568 36.6407C152.771 33.5065 152.09 34.6198 152.081 30.8658L152.093 18.059C151.633 17.7204 150.836 17.2196 150.63 16.734C150.856 16.2664 150.822 16.3956 151.411 16.1358Z" fill="white"/>
<path d="M187.408 16.1863C187.693 16.1572 187.613 16.1693 187.912 16.3405C187.919 17.9511 186.192 18.5119 186.115 19.3354C185.921 21.3919 186.471 36.0612 185.673 36.7872C185.638 36.7815 185.603 36.7752 185.57 36.768C184.229 36.4846 181.329 31.3484 180.529 30.0933L174.247 20.3915C174.063 23.33 174.227 30.5719 174.302 33.7043C174.316 34.2868 176.318 35.6017 176.813 36.458L176.717 36.6972C175.612 36.8604 172.426 36.8161 171.05 36.8758C170.87 36.8103 170.731 36.6681 170.586 36.5397L170.606 36.1394C170.905 35.6132 172.23 34.7988 172.806 34.3816C173.09 30.0365 173.081 22.773 172.835 18.4218C172.044 17.9904 171.018 17.6219 170.851 16.6936C171.497 15.9908 173.705 16.2279 174.647 16.2487C175.911 17.2485 183.656 29.4061 184.703 31.3863C185.01 29.0167 184.778 21.8848 184.711 19.1451C184.701 18.7373 182.603 17.2482 182.558 16.5568C182.985 16.1433 186.498 16.2313 187.408 16.1863Z" fill="white"/>
<path d="M264.296 15.9759C266.185 15.8483 266.902 16.0023 268.609 16.7105L270.841 15.8546C271.037 16.971 272.303 21.2878 271.776 21.9217C270.743 21.8502 269.268 19.2294 268.433 18.4965C267.791 17.9343 267.257 17.6137 266.54 17.1703C265.736 17.1103 264.72 17.1309 263.901 17.1257C259.015 20.6637 263.195 23.4722 267.171 24.6529C272.379 26.1995 275.748 30.5103 271.575 35.3765C270.42 36.7244 268.578 37.1037 266.828 37.0925C264.813 37.1157 264.123 36.8166 262.202 36.2455L260.115 37.2289C259.923 36.0097 258.671 31.4848 259.225 30.7125C260.181 30.7006 261.384 32.7514 262.071 33.5626C264.159 36.0286 265.143 36.0687 268.237 35.9762C269.634 35.1738 269.901 34.9175 270.882 33.6191C270.927 32.9756 270.889 31.9796 270.882 31.3083C268.73 28.0615 265.325 28.4146 262.165 26.3207C259.701 24.6882 258.928 21.0753 260.452 18.4496C261.095 17.3381 262.962 16.1963 264.296 15.9759Z" fill="white"/>
<path d="M120.031 16.2674C120.884 16.1659 121.356 15.9589 121.891 16.6935C121.825 17.6633 120.933 17.978 120.169 18.3646C119.175 25.443 123.524 38.9804 111.461 36.9476C109.288 36.5815 108.12 34.9818 107.011 33.2852C106.686 28.85 106.968 22.5652 106.887 17.8977C106.242 17.6864 105.622 17.5348 105.215 16.9958C105.209 16.4081 105.148 16.6079 105.51 16.1224C106.96 16.2364 110.263 15.9828 111.089 16.5139C111.341 17.3551 110.536 17.6313 109.866 18.0721C110.013 22.0713 109.562 29.8696 110.158 33.468C110.252 33.5997 110.348 33.7297 110.447 33.8579C112.951 37.1082 118.252 35.9303 118.55 31.6895C118.804 28.313 118.56 24.6648 118.652 21.3196C118.766 17.1955 117.368 18.7977 116.265 17.0525C116.264 16.5787 116.194 16.6931 116.481 16.3951C117.4 16.1461 119.029 16.2482 120.031 16.2674Z" fill="white"/>
<path d="M213.848 16.1663C215.805 15.7167 215.786 17.1702 215.942 18.6485C216.043 19.6023 217.223 21.9228 216.401 22.4785C214.792 22.1591 213.455 17.5203 210.412 17.7839C209.316 17.8787 207.55 17.241 206.413 18.1186C206.108 19.4533 206.17 24.072 206.421 25.4353C207.355 26.5638 209.501 25.3036 210.405 24.6803C210.683 23.938 210.852 23.3317 211.504 22.8797L211.848 22.9444C212.472 23.8353 212.485 29.4825 211.639 30.1393L211.326 30.0566C210.845 29.5168 210.822 29.0087 210.705 28.2987C209.655 27.2082 209.527 27.083 208.036 26.9885C207.458 27.008 206.815 26.9721 206.325 27.2686C206.121 28.4092 206.243 33.6877 206.281 35.075C206.935 35.4014 208.16 35.7899 207.891 36.6052C207.105 37.0898 202.275 37.1509 201.751 36.4591C201.954 35.9245 202.962 35.2041 203.452 34.8054C203.426 29.3015 203.427 23.7973 203.459 18.2934C202.807 17.8248 202.059 17.43 201.987 16.5847C202.856 15.9417 211.766 16.4268 213.848 16.1663Z" fill="white"/>
<path d="M284.637 15.9673C288.133 15.757 288.379 16.9962 291.814 15.9902C291.981 17.6123 293.219 21.6681 292.784 22.5212C291.772 22.4545 289.37 18.3296 288.259 17.8489C278.832 13.7695 278.665 31.7419 284.296 34.7603C285.191 35.2406 286.808 35.493 287.736 35.2226C290.386 34.6791 290.737 33.4243 292.322 31.2511C292.918 31.1602 292.728 31.1243 293.254 31.3251C293.425 32.8913 290.08 36.2212 288.706 36.666C275.356 40.9874 273.481 17.9604 284.637 15.9673Z" fill="white"/>
<path d="M220.179 16.2649C221.143 16.2657 225.964 16.0965 226.404 16.5083C226.574 17.8087 225.686 17.1544 224.842 18.2631C224.671 18.7588 224.62 21.8397 224.684 22.4463C224.989 25.2777 224.141 33.1458 225.111 35.4341C226.464 36.5728 228.705 35.3185 229.837 35.1981C232.153 34.9518 233.425 30.4755 234.813 30.6265L235.088 31.2466C234.724 33.4351 234.048 33.8523 233.806 36.9672C230.195 36.8179 224.132 37.0334 220.35 36.8268C220.25 36.7279 220.163 36.6422 220.089 36.57C220.072 35.5439 221.343 35.6564 221.682 34.8948C221.996 34.1906 221.963 18.8585 221.661 18.1258C221.524 17.7952 220.85 17.6268 220.519 17.4866C220.109 16.9294 220.222 17.017 220.179 16.2649Z" fill="white"/>
<path d="M53 26.5C53 41.1355 41.1355 53 26.5 53C11.8645 53 0 41.1355 0 26.5C0 11.8645 11.8645 0 26.5 0C41.1355 0 53 11.8645 53 26.5ZM1.83867 26.5C1.83867 40.1201 12.8799 51.1613 26.5 51.1613C40.1201 51.1613 51.1613 40.1201 51.1613 26.5C51.1613 12.8799 40.1201 1.83867 26.5 1.83867C12.8799 1.83867 1.83867 12.8799 1.83867 26.5Z" fill="white"/>
<path d="M87.4083 16.1335C88.9565 16.2431 90.4135 16.1636 91.9535 16.1901C92.5803 16.2008 93.0195 16.2999 93.0997 16.9467C92.8307 17.5253 92.0198 17.9053 91.4435 18.243C91.6083 22.6931 91.3772 27.2347 91.4419 31.693C91.4564 32.691 91.3428 34.6795 92.0514 35.414C93.1394 36.0178 94.1264 35.6819 94.5639 35.7164C98.3086 36.0103 100.461 30.8554 101.531 30.6099L101.829 30.8257L101.89 31.5567C101.221 33.2189 101.022 35.8182 100.538 36.7068C98.7379 37.0094 89.5369 36.8745 87.216 36.8247L86.9902 36.5803L87.0458 36.1843C87.4312 35.5969 88.1182 35.2343 88.7176 34.8546C88.5178 29.6634 88.612 23.3569 88.7029 18.1361C88.1217 17.8566 87.3677 17.4598 87.0723 16.8749C87.1036 16.3433 87.0283 16.5133 87.4083 16.1335Z" fill="white"/>
<path d="M25.7334 4.93562C29.9691 4.66406 32.3558 9.20714 30.529 12.8083C30.0286 13.7945 27.081 15.5393 28.4768 16.7932C29.1464 17.3948 31.151 20.0093 32.0767 18.6892C35.547 13.3513 42.6472 14.8629 41.9238 22.0783C40.7875 23.7659 39.4066 25.047 37.9831 26.4885C40.901 29.0674 44.3785 33.0468 40.0517 36.5249C39.2208 37.1929 38.3126 37.3797 37.2976 37.666C33.1705 36.7684 34.4403 36.3396 31.5682 33.7974C30.6097 33.7666 27.379 36.6512 28.3164 37.5854C31.9195 41.1766 32.6865 45.5172 27.5005 48.0404C24.2336 48.3346 21.8321 46.4093 21.6945 42.9991C21.5851 40.2853 23.2583 38.9293 25.0283 37.1163C24.1095 35.9501 22.6256 34.6143 21.518 33.5619C19.3561 35.0075 19 37 15.8891 37.5119C14.5784 37.5553 13.3028 37.0832 12.3356 36.1969C11.3974 35.3459 10.8465 34.1488 10.81 32.8822C10.7108 30.0772 12.8877 28.4335 14.7529 26.4367C12.8258 24.3928 10.2433 22.7347 10.8407 19.5937C11.1012 18.2525 11.8789 17.0675 13.0055 16.2954C17.5951 13.1833 20.1596 18.8316 21.5433 19.1024C22.5036 18.5782 23.8269 17.2211 24.5445 16.3952C24.7989 15.2459 22.2935 13.2694 21.8607 11.3736C21.1946 8.45583 22.6474 5.70284 25.7334 4.93562ZM15.3558 17.3229C14.0203 17.8864 13.776 17.8323 13.0671 19.1557C12.0379 21.077 14.5731 25.093 16.5721 24.8065L16.8961 24.4864C18.4967 22.8201 21.2721 20.9 18.7767 19.1299C17.5535 18.2623 17.0486 17.3007 15.3558 17.3229ZM36.4506 25.0281C40.1887 23.4204 41.8651 17.4585 36.8336 17.2932C35.5238 17.798 32.3801 19.5815 33.2996 21.363C33.9668 22.6555 35.4573 23.8892 36.4506 25.0281ZM37.0035 35.6704C37.9567 35.509 38.9527 35.2007 39.5475 34.3797C40.0089 33.7425 40.0937 32.976 39.965 32.2193C39.7 30.6601 38.3694 29.246 37.1241 28.3618C36.9112 28.2107 36.6707 28.0912 36.4297 27.9926C35.4816 29.0274 33.1042 30.9398 33.1658 32.3853C33.1895 32.9406 33.5449 33.4582 33.9474 33.8168C34.8334 34.6064 35.8768 35.2956 37.0035 35.6704ZM16.5785 35.3776C17.5497 35.0122 19.3295 33.4269 19.7656 32.4773C19.8565 32.2793 19.8554 32.1222 19.7771 31.9233C19.452 31.0965 17.1965 28.5193 16.4613 28.1992C16.364 28.1568 16.2629 28.1358 16.1589 28.1175C16.0893 28.105 16.026 28.0916 15.9547 28.089C14.5098 29.3254 13.0478 30.5516 12.8941 32.5912C12.8374 33.3438 12.9607 34.2151 13.4696 34.8026C13.9416 35.3477 14.7812 35.5452 15.4781 35.5835C15.8344 35.6031 16.1819 35.4943 16.5202 35.3965C16.5398 35.3907 16.5592 35.3842 16.5785 35.3776ZM17.3952 26.545C18.4259 27.635 20.3043 29.7718 21.5068 30.4393C22.6897 29.1694 23.8405 27.6599 25.0469 26.4509C24.5926 25.9352 21.8121 22.7438 21.4885 22.5229C20.036 23.4512 18.3705 25.1253 17.3952 26.545ZM26.5462 17.476C22.043 20.1106 23.0355 21.9591 26.5229 24.8185C27.5781 23.5315 29.2403 21.9487 29.7405 20.5189C28.807 19.7636 26.9137 17.7394 26.5462 17.476ZM26.5028 35.6926C27.3056 34.8668 29.5495 33.0531 29.5423 31.8747C29.5344 30.5938 27.3096 28.9091 26.4735 27.9779C25.5641 28.8612 23.2796 30.6504 23.2676 31.9312C23.2609 32.6151 23.7687 33.1979 24.2264 33.6533C24.9401 34.3632 25.7256 35.0524 26.5028 35.6926ZM27.7516 26.4577C28.3886 27.2163 30.7682 30.3141 31.5957 30.4258L35.3332 26.4638C34.8559 25.8894 31.9646 22.7522 31.4943 22.5453C30.1133 23.3996 28.7797 25.1785 27.7516 26.4577ZM26.4647 38.6687C25.0956 39.5163 24.0172 40.6085 23.6315 42.2218C23.4404 43.0208 23.4794 43.9351 23.9241 44.6459C24.4267 45.4493 25.1364 45.8842 26.044 46.0895C26.1005 46.1021 26.1569 46.1144 26.2136 46.1261C27.217 46.0425 27.9376 45.7945 28.6016 45.0045C29.1328 44.3729 29.3114 43.5338 29.2382 42.7257C29.0882 41.0726 28.0248 39.9232 26.8038 38.9111C26.6951 38.821 26.5921 38.7323 26.4647 38.6687ZM25.4412 7.01546C21.1298 9.71929 25.5128 14.8392 26.7596 14.2313C28.147 12.8654 29.1393 11.9773 29.2266 9.87742C29.2957 8.21292 28.0671 6.96588 26.4233 6.97507C26.0956 6.97898 25.768 6.99245 25.4412 7.01546Z" fill="white"/>
<path d="M347.622 16.1169C348.638 16.064 349.765 16.067 350.793 16.0476C352.754 20.4263 353.792 25.8762 355.519 30.3802C356.089 31.8663 356.604 35.0153 357.957 35.7678V36.8901C356.912 36.8686 352.698 37.1794 352.182 36.468C352.61 35.7976 354.044 35.5019 353.874 34.7762C353.717 34.0937 352.804 31.0146 352.471 30.6163C351.425 30.1241 347.624 30.277 346.278 30.2829C345.918 30.711 345.628 31.0837 345.387 31.5574C343.731 34.8014 346.334 35.5997 346.656 36.6176C346.075 37.0122 341.73 37.0766 341.174 36.4794L341.199 36.0951C341.554 35.5051 342.148 35.2261 342.742 34.877L342.774 34.818C344.111 32.3828 347.08 21.7786 347.937 18.5365C348.106 17.8902 347.813 16.7718 347.622 16.1169ZM345.995 28.8037C347.238 28.9256 348.18 29.0246 349.436 28.999C350.13 29.015 351.228 29.1057 351.829 28.853C352.032 28.4005 349.872 22.086 349.622 20.8638L349.345 20.5715C347.314 22.6163 347.79 25.8997 345.995 28.8037Z" fill="white"/>
</g>
<defs>
<clipPath id="clip0_5_34">
<rect width="357.957" height="53" fill="white"/>
</clipPath>
</defs>
</svg>
